<?xml version="1.0" encoding="UTF-8"?>
<svg version="1.1" xmlns="http://www.w3.org/2000/svg" width="1536" height="1024">
<path d="M0 0 C506.88 0 1013.76 0 1536 0 C1536 337.92 1536 675.84 1536 1024 C1029.12 1024 522.24 1024 0 1024 C0 686.08 0 348.16 0 0 Z " fill="#FEFBF6" transform="translate(0,0)"/>
<path d="M0 0 C1.31316234 -0.00226556 2.62632468 -0.00453111 3.97927982 -0.00686532 C7.59066037 -0.01293096 11.20201759 -0.01285597 14.81340206 -0.01167095 C18.72153185 -0.0114656 22.6296544 -0.01699836 26.53778076 -0.02172852 C34.18199291 -0.03000677 41.82619733 -0.03278207 49.47041359 -0.03334089 C55.68899482 -0.03381739 61.90757352 -0.03587877 68.12615395 -0.03904152 C85.78782533 -0.0478403 103.44949065 -0.0524621 121.11116423 -0.05171105 C122.06172567 -0.05167109 123.01228711 -0.05163113 123.99165344 -0.05158997 C124.9433861 -0.05154909 125.89511876 -0.0515082 126.87569181 -0.05146609 C142.29258693 -0.05105981 157.7094576 -0.06062669 173.12634566 -0.07472833 C188.98653343 -0.08912008 204.8467093 -0.09599698 220.70690376 -0.09513456 C229.59903326 -0.09480356 238.49113713 -0.0975079 247.38326073 -0.10831261 C254.95494633 -0.1174545 262.52659468 -0.11956273 270.09828343 -0.11280318 C273.95458138 -0.10955653 277.81080801 -0.10941346 281.667099 -0.11815643 C330.91711802 -0.22272484 378.72648949 9.9911734 419.44697571 39.13371277 C420.40732727 39.81949402 421.36767883 40.50527527 422.35713196 41.21183777 C472.17535623 77.70582024 502.05253887 128.58889155 511.96673584 189.31745911 C512.80966961 196.21988308 512.61216263 203.199977 512.62397766 210.14299011 C512.63025191 211.76698956 512.63689955 213.39098761 512.64389038 215.01498413 C512.6648431 220.33319619 512.67529406 225.6514082 512.68525696 230.96965027 C512.68930973 232.81279642 512.69342679 234.65594242 512.69760704 236.49908829 C512.71665034 245.17450348 512.73087542 253.84991029 512.73921901 262.52534235 C512.7489467 272.47117242 512.77515201 282.41677728 512.8157199 292.3625282 C512.84613518 300.09042218 512.86071219 307.81825262 512.86400002 315.54620516 C512.86632444 320.14128626 512.8749349 324.7361267 512.9004612 329.33114243 C513.20038209 386.34196675 499.45277637 439.20671852 461.44697571 483.13371277 C460.77666321 483.91488464 460.10635071 484.69605652 459.41572571 485.50090027 C445.95683868 500.81791722 431.22493693 513.69511766 414.78144836 525.6915741 C408.73257039 530.12547194 402.8797819 534.75063052 397.08930969 539.51506042 C392.53543938 543.26112471 387.91484553 546.89845198 383.22749329 550.47550964 C379.37902246 553.4128584 375.56184232 556.38694147 371.75947571 559.38371277 C360.69382711 568.09394123 349.6279766 576.7989832 338.32197571 585.19621277 C331.49892358 590.27041424 324.89820057 595.58515419 318.32197571 600.97355652 C313.00102881 605.32862436 307.58371976 609.55901077 302.16474915 613.79093933 C299.25425982 616.06605179 296.35094654 618.35028996 293.44697571 620.63371277 C289.97383542 623.3646795 286.49948662 626.09398805 283.01728821 628.81340027 C276.75309743 633.71105262 270.54336372 638.66661352 264.38447571 643.69621277 C229.02483579 672.54123029 229.02483579 672.54123029 214.44697571 671.13371277 C207.89799577 669.15666222 203.24483032 663.48426 200.07197571 657.57121277 C198.49532695 651.42228262 198.30570865 645.37677331 198.33345032 639.07731628 C198.33330429 638.19847275 198.33315826 637.31962921 198.33300781 636.41415405 C198.33370044 633.5302833 198.34146223 630.64647839 198.34931946 627.76261902 C198.35118595 625.75480179 198.35260876 623.74698411 198.35360718 621.73916626 C198.35741415 616.47025787 198.36722883 611.2013773 198.37831116 605.93247986 C198.38856447 600.54969153 198.39311318 595.16689868 198.39814758 589.78410339 C198.4088528 579.233961 198.42590727 568.6838392 198.44697571 558.13371277 C196.81613336 558.13647815 196.81613336 558.13647815 195.1523447 558.13929939 C168.64203035 558.1837884 142.13172085 558.21660687 115.62137699 558.23733711 C102.80094128 558.24762972 89.9805303 558.26165137 77.16011047 558.28459167 C65.97991765 558.30458741 54.79974274 558.31744384 43.61953253 558.32188976 C37.70510382 558.32448669 31.79072637 558.33054828 25.87631416 558.34517288 C20.29742896 558.35885468 14.71861559 558.3629142 9.13971519 558.35992813 C7.10374179 558.36047359 5.06776572 558.36438737 3.03180695 558.37212372 C-14.20556047 558.43435182 -30.69716043 557.03173387 -47.55302429 553.13371277 C-48.26652039 552.9703241 -48.98001648 552.80693542 -49.71513367 552.63859558 C-82.23468241 545.03571059 -113.29036522 530.17336844 -138.55302429 508.13371277 C-139.2710321 507.52398621 -139.98903992 506.91425964 -140.72880554 506.28605652 C-153.83226891 494.85631284 -166.69925703 482.51343437 -176.55302429 468.13371277 C-176.98099304 467.51770203 -177.40896179 466.90169128 -177.84989929 466.26701355 C-203.6658366 428.79495799 -216.71663993 386.23812393 -216.69828796 340.82853699 C-216.70128768 339.32889727 -216.70469206 337.82925833 -216.70846558 336.32962036 C-216.71722834 332.28999082 -216.71964044 328.25038251 -216.72028136 324.21074438 C-216.72099641 321.67645013 -216.7231393 319.14216113 -216.72577858 316.60786819 C-216.73500735 307.73659681 -216.73911668 298.86534036 -216.73832703 289.99406433 C-216.73772731 281.77350979 -216.74826465 273.55302108 -216.76407069 265.33248317 C-216.77722299 258.2347756 -216.7825077 251.13708934 -216.78187162 244.0393697 C-216.78161883 239.81803573 -216.7843471 235.59676033 -216.79504967 231.37543869 C-216.84434759 210.47740686 -216.56369429 190.25670063 -211.86552429 169.75871277 C-211.60207214 168.60516296 -211.33862 167.45161316 -211.06718445 166.2631073 C-199.96052972 119.1920468 -172.08404716 75.28698237 -133.15653992 46.32707214 C-131.6802452 45.2283924 -130.21750772 44.11155763 -128.75614929 42.99308777 C-91.69117919 15.13953035 -46.28931904 -0.05942273 0 0 Z " fill="#E73224" transform="translate(618.5530242919922,179.8662872314453)"/>
<path d="M0 0 C1.37126541 -0.00744736 1.37126541 -0.00744736 2.77023315 -0.01504517 C5.79971059 -0.02966937 8.82913562 -0.03647017 11.85864258 -0.04199219 C13.96511334 -0.04774459 16.07158408 -0.05350231 18.17805481 -0.05926514 C22.59901168 -0.06977666 27.01995036 -0.07561796 31.44091797 -0.07910156 C37.09560897 -0.08457856 42.75005825 -0.10858906 48.40467358 -0.13707352 C52.75851636 -0.15573487 57.11230141 -0.16090742 61.4661808 -0.16243744 C63.5501061 -0.16545792 65.63403053 -0.17346598 67.71791649 -0.18662262 C70.64025385 -0.20375175 73.56200727 -0.20178575 76.484375 -0.1953125 C77.33921982 -0.20452728 78.19406464 -0.21374207 79.07481384 -0.22323608 C85.51735499 -0.17872094 91.2737183 0.78581559 96.34301758 5.09863281 C96.89086914 5.77925781 97.4387207 6.45988281 98.00317383 7.16113281 C98.56907227 7.84175781 99.1349707 8.52238281 99.71801758 9.22363281 C101.9206174 12.39026908 102.19012107 15.02974556 102.18592834 18.77384949 C102.18799034 20.19361336 102.18799034 20.19361336 102.19009399 21.64205933 C102.18649872 22.67855621 102.18290344 23.7150531 102.17919922 24.78295898 C102.17934525 25.87579697 102.17949127 26.96863495 102.17964172 28.09458923 C102.17894388 31.71444672 102.17115741 35.33425304 102.16333008 38.95410156 C102.16146545 41.46088127 102.16004176 43.96766133 102.15904236 46.47444153 C102.15561157 52.40298286 102.1477264 58.33150772 102.13769287 64.26004058 C102.12542137 71.67172951 102.12004849 79.08342071 102.11450195 86.49511719 C102.10377092 99.71713176 102.08689046 112.93913112 102.06567383 126.16113281 C102.88040366 126.15698474 102.88040366 126.15698474 103.71159267 126.15275288 C116.95855025 126.08635401 130.20547847 126.03697666 143.4525671 126.0056963 C149.85890352 125.9900593 156.26511957 125.96885663 162.67138672 125.93481445 C168.85703778 125.90215136 175.04257325 125.88426501 181.22830391 125.87650108 C183.5849343 125.87097009 185.94155856 125.86016944 188.29813957 125.84394264 C191.60612394 125.82207642 194.91363435 125.81916979 198.22167969 125.82055664 C199.18985123 125.80977081 200.15802277 125.79898499 201.15553284 125.78787231 C210.24826071 125.828958 217.53659509 127.63205407 224.06567383 134.16113281 C225.77897868 137.00106522 226.31786251 139.09795799 226.33309937 142.39816284 C226.34589432 143.6555275 226.34589432 143.6555275 226.35894775 144.93829346 C226.35804138 145.84955994 226.35713501 146.76082642 226.35620117 147.69970703 C226.3629184 148.66601044 226.36963562 149.63231384 226.3765564 150.62789917 C226.39556226 153.82392512 226.3994619 157.01974136 226.40161133 160.21582031 C226.40803738 162.43775519 226.41476559 164.65968922 226.42178345 166.88162231 C226.43376264 171.54040489 226.4374636 176.19911327 226.4362793 180.85791016 C226.43607606 186.82561981 226.46338088 192.79285352 226.49782372 198.76045036 C226.52006835 203.35013003 226.52411758 207.9396947 226.52305984 212.52942276 C226.52541937 214.72943894 226.53426259 216.92945812 226.54972458 219.12942123 C226.56933499 222.20787577 226.56356555 225.28529814 226.55151367 228.36376953 C226.56275269 229.27098755 226.5739917 230.17820557 226.58557129 231.11291504 C226.53077382 236.62522436 225.74697659 239.78877876 222.06567383 244.16113281 C220.03051758 245.80566406 220.03051758 245.80566406 218.00317383 246.97363281 C217.33157227 247.37195313 216.6599707 247.77027344 215.96801758 248.18066406 C212.73309937 249.84794223 210.14564221 250.28550562 206.56684875 250.28138733 C205.64558197 250.28276199 204.72431519 250.28413666 203.77513123 250.28555298 C202.76668655 250.2819577 201.75824188 250.27836243 200.71923828 250.2746582 C199.12387238 250.27487724 199.12387238 250.27487724 197.49627686 250.27510071 C193.97381566 250.27440294 190.45140706 250.26661682 186.92895508 250.25878906 C184.48943613 250.2569244 182.0499168 250.25550073 179.61039734 250.25450134 C173.18406137 250.25067995 166.75774795 250.24085285 160.3314209 250.22979736 C153.77604477 250.21957515 147.220665 250.21500198 140.6652832 250.20996094 C127.79873712 250.19923028 114.93220667 250.1823501 102.06567383 250.16113281 C102.07455627 251.47134399 102.08343872 252.78155518 102.09259033 254.13146973 C102.17374435 266.49049143 102.23367218 278.84945894 102.27292252 291.20868683 C102.29378002 297.56241478 102.32206481 303.91592728 102.36743164 310.26953125 C102.41095385 316.40331637 102.43482475 322.53689451 102.4451828 328.67082214 C102.45256264 331.00875608 102.46697373 333.34667893 102.48859406 335.68452454 C102.51771187 338.96408398 102.5216262 342.24279263 102.51977539 345.52246094 C102.53415649 346.48487701 102.5485376 347.44729309 102.56335449 348.43887329 C102.52263834 355.12459943 101.31002928 360.65871648 96.6536293 365.68549347 C90.69300267 370.96303645 85.40942552 371.45960092 77.8125 371.45166016 C76.88827744 371.45837738 75.96405487 371.4650946 75.01182556 371.47201538 C71.96070965 371.49099116 68.9098138 371.49491948 65.85864258 371.49707031 C63.73260915 371.50349887 61.60657661 371.51022727 59.48054504 371.51724243 C55.02444407 371.52921439 50.56842061 371.53292337 46.11230469 371.53173828 C40.41273108 371.53153518 34.71365657 371.55882908 29.01420116 371.5932827 C24.62260166 371.61556198 20.23112204 371.61957549 15.83947182 371.61851883 C13.73879592 371.62087355 11.63811665 371.62968974 9.53749657 371.64518356 C6.59365664 371.66486256 3.65088986 371.65899758 0.70703125 371.64697266 C-0.15402222 371.65821167 -1.01507568 371.66945068 -1.90222168 371.68103027 C-7.70453532 371.62105041 -12.07588631 370.40197655 -16.93432617 367.16113281 C-22.99928724 360.93656751 -23.22190902 355.04264216 -23.16137695 346.77124023 C-23.16166901 345.72687805 -23.16196106 344.68251587 -23.16226196 343.60650635 C-23.16087033 340.15978646 -23.1453167 336.71328362 -23.12963867 333.26660156 C-23.12590796 330.87478249 -23.12306126 328.48296189 -23.12106323 326.09114075 C-23.1134314 319.79960909 -23.09378666 313.50816994 -23.07165527 307.2166748 C-23.05118722 300.79517875 -23.04205945 294.37366772 -23.03198242 287.95214844 C-23.01054045 275.35510379 -22.97679493 262.75812322 -22.93432617 250.16113281 C-23.7567866 250.16666357 -23.7567866 250.16666357 -24.59586239 250.17230606 C-37.96797219 250.26083449 -51.3400303 250.32667257 -64.71237087 250.3683815 C-71.17928955 250.38923171 -77.64599626 250.41750314 -84.11279297 250.46289062 C-90.35680785 250.5064389 -96.60061919 250.53028922 -102.84477425 250.54064178 C-105.22374741 250.54801695 -107.60270977 250.56241889 -109.98159599 250.58405304 C-113.32081818 250.61320546 -116.65920563 250.61708374 -119.99853516 250.61523438 C-120.97605743 250.62961548 -121.95357971 250.64399658 -122.96072388 250.65881348 C-130.96633765 250.61102269 -137.55177041 248.71661834 -143.43432617 243.09863281 C-146.36881487 239.65060859 -147.05550102 237.45914857 -147.08149719 233.08232117 C-147.0886525 232.25386688 -147.0958078 231.4254126 -147.10317993 230.57185364 C-147.10586884 229.66634262 -147.10855774 228.7608316 -147.11132812 227.82788086 C-147.11789932 226.87147705 -147.12447052 225.91507324 -147.13124084 224.9296875 C-147.15097172 221.76074141 -147.1626354 218.59184268 -147.17260742 215.42285156 C-147.17668295 214.34086802 -147.18075848 213.25888447 -147.1849575 212.14411354 C-147.20581635 206.41842464 -147.22011945 200.6927597 -147.22949219 194.96704102 C-147.24056217 189.05201652 -147.27496968 183.13736763 -147.31466389 177.22247601 C-147.34080067 172.67484332 -147.34918138 168.12730058 -147.35277367 163.57959938 C-147.35764642 161.39911166 -147.36927993 159.21862814 -147.38781166 157.03821373 C-147.41214227 153.98602833 -147.41124907 150.93482091 -147.40429688 147.88256836 C-147.41710693 146.98313004 -147.42991699 146.08369171 -147.44311523 145.15699768 C-147.39752176 139.66177705 -146.60039761 136.52163071 -142.93432617 132.16113281 C-140.89916992 130.51660156 -140.89916992 130.51660156 -138.87182617 129.34863281 C-138.20022461 128.9503125 -137.52862305 128.55199219 -136.83666992 128.14160156 C-133.60175172 126.47432339 -131.01429455 126.03676001 -127.4355011 126.0408783 C-126.51423431 126.03950363 -125.59296753 126.03812897 -124.64378357 126.03671265 C-123.6353389 126.04030792 -122.62689423 126.0439032 -121.58789062 126.04760742 C-120.52431335 126.0474614 -119.46073608 126.04731537 -118.3649292 126.04716492 C-114.842468 126.04786269 -111.3200594 126.05564881 -107.79760742 126.06347656 C-105.35808847 126.06534122 -102.91856914 126.0667649 -100.47904968 126.06776428 C-94.05271372 126.07158568 -87.62640029 126.08141277 -81.20007324 126.09246826 C-74.64469711 126.10269048 -68.08931735 126.10726364 -61.53393555 126.11230469 C-48.66738946 126.12303535 -35.80085902 126.13991553 -22.93432617 126.16113281 C-22.93801334 125.58521361 -22.94170052 125.00929441 -22.94549942 124.41592312 C-23.03393963 110.38524358 -23.10007901 96.35460597 -23.14157486 82.32370663 C-23.16217675 75.53837494 -23.19025148 68.75322962 -23.23608398 61.96801758 C-23.28029784 55.41929894 -23.30346775 48.87070116 -23.31383514 42.32184029 C-23.32122298 39.82399003 -23.33564963 37.32615031 -23.3572464 34.82838249 C-23.38630456 31.32830837 -23.390281 27.82903286 -23.38842773 24.32885742 C-23.40280884 23.2973909 -23.41718994 22.26592438 -23.43200684 21.20320129 C-23.3962827 14.96345069 -22.59052327 11.26525909 -18.93432617 6.16113281 C-17.11791992 4.41894531 -17.11791992 4.41894531 -15.37182617 3.28613281 C-14.79303711 2.89683594 -14.21424805 2.50753906 -13.61791992 2.10644531 C-9.25884861 -0.34110749 -4.84087512 0.00625622 0 0 Z " fill="#FEFBF6" transform="translate(726.934326171875,281.8388671875)"/>
<path d="M0 0 C0.33 0 0.66 0 1 0 C1.33 32.01 1.66 64.02 2 97 C1.01 97 0.02 97 -1 97 C-0.67 64.99 -0.34 32.98 0 0 Z " fill="#F53527" transform="translate(819,738)"/>
<path d="M0 0 C0.66 0.33 1.32 0.66 2 1 C1.25234375 1.36351562 0.5046875 1.72703125 -0.265625 2.1015625 C-6.1151962 5.08760015 -9.88759457 7.18115506 -13 13 C-13.99 13.495 -13.99 13.495 -15 14 C-15.33 25.22 -15.66 36.44 -16 48 C-16.33 48 -16.66 48 -17 48 C-17 35.79 -17 23.58 -17 11 C-16.34 11 -15.68 11 -15 11 C-15 10.34 -15 9.68 -15 9 C-14.38125 8.566875 -13.7625 8.13375 -13.125 7.6875 C-10.60686633 5.68780562 -9.97814895 4.01595927 -9 1 C-8.443125 1.20625 -7.88625 1.4125 -7.3125 1.625 C-4.34503413 2.10621068 -2.72662502 1.14805264 0 0 Z " fill="#EA3021" transform="translate(594,407)"/>
<path d="M0 0 C0.66 0.33 1.32 0.66 2 1 C1.34 1.66 0.68 2.32 0 3 C0.495 3.99 0.495 3.99 1 5 C0.34 5 -0.32 5 -1 5 C-1.33 5.66 -1.66 6.32 -2 7 C-2.495 6.01 -2.495 6.01 -3 5 C-22.305 4.505 -22.305 4.505 -42 4 C-42 3.67 -42 3.34 -42 3 C-29.13 3 -16.26 3 -3 3 C-3 2.34 -3 1.68 -3 1 C-2.01 0.67 -1.02 0.34 0 0 Z " fill="#EF291C" transform="translate(941,530)"/>
<path d="M0 0 C2.77109307 -0.05392397 5.54113818 -0.09363455 8.3125 -0.125 C9.09818359 -0.14175781 9.88386719 -0.15851563 10.69335938 -0.17578125 C11.45068359 -0.18222656 12.20800781 -0.18867188 12.98828125 -0.1953125 C13.68477783 -0.20578613 14.38127441 -0.21625977 15.09887695 -0.22705078 C17 0 17 0 20 2 C17.03 2 14.06 2 11 2 C11 2.66 11 3.32 11 4 C7.37 3.67 3.74 3.34 0 3 C0 2.01 0 1.02 0 0 Z " fill="#E02C20" transform="translate(593,181)"/>
<path d="M0 0 C2 1 2 1 3.0703125 3.546875 C3.41835937 4.60390625 3.76640625 5.6609375 4.125 6.75 C4.47820312 7.79671875 4.83140625 8.8434375 5.1953125 9.921875 C5.95657295 12.833881 6.40630953 15.02039682 6 18 C5.01 18.66 4.02 19.32 3 20 C2.26167392 15.67551867 1.60825035 11.34464536 1 7 C0.67 7 0.34 7 0 7 C0 4.69 0 2.38 0 0 Z " fill="#E03226" transform="translate(1118,324)"/>
<path d="M0 0 C2.90003936 3.25085057 3.46736332 5.62729062 3.75 9.9375 C3.82734375 10.95714844 3.9046875 11.97679687 3.984375 13.02734375 C3.99922625 15.85279501 3.66540674 18.26275864 3 21 C0.21554556 15.987982 -0.12483509 11.35999344 -0.0625 5.6875 C-0.05347656 4.61886719 -0.04445313 3.55023437 -0.03515625 2.44921875 C-0.02355469 1.64097656 -0.01195312 0.83273437 0 0 Z " fill="#DF2A1D" transform="translate(404,543)"/>
<path d="M0 0 C1.32 0.66 2.64 1.32 4 2 C2.38113585 3.67262717 0.7547271 5.33795537 -0.875 7 C-2.23238281 8.3921875 -2.23238281 8.3921875 -3.6171875 9.8125 C-6 12 -6 12 -8 12 C-8 11.01 -8 10.02 -8 9 C-7.01 9 -6.02 9 -5 9 C-5.33 8.01 -5.66 7.02 -6 6 C-4.68 5.67 -3.36 5.34 -2 5 C-1.855625 4.360625 -1.71125 3.72125 -1.5625 3.0625 C-1 1 -1 1 0 0 Z " fill="#DE281A" transform="translate(1066,672)"/>
<path d="M0 0 C2.40334842 3.20446456 3.79111743 5.45339871 5.25 9.0625 C5.60578125 9.91972656 5.9615625 10.77695312 6.328125 11.66015625 C7 14 7 14 6 17 C6 16.34 6 15.68 6 15 C4.68 14.67 3.36 14.34 2 14 C1.34 9.38 0.68 4.76 0 0 Z " fill="#DA291C" transform="translate(1111,306)"/>
<path d="M0 0 C1.17239567 3.51718702 0.81331475 4.11834238 -0.58203125 7.4140625 C-0.93716797 8.25710938 -1.29230469 9.10015625 -1.65820312 9.96875 C-2.03912109 10.8453125 -2.42003906 11.721875 -2.8125 12.625 C-3.36647461 13.95144531 -3.36647461 13.95144531 -3.93164062 15.3046875 C-6.73490828 21.86745414 -6.73490828 21.86745414 -9 23 C-9.33 21.68 -9.66 20.36 -10 19 C-9.01 18.67 -8.02 18.34 -7 18 C-7 16.68 -7 15.36 -7 14 C-6.34 14 -5.68 14 -5 14 C-4.70996094 13.11248047 -4.70996094 13.11248047 -4.4140625 12.20703125 C-3.05585281 8.0853355 -1.67949415 4.0049476 0 0 Z " fill="#C72418" transform="translate(1117,596)"/>
<path d="M0 0 C0.66 0.33 1.32 0.66 2 1 C1.01 1.33 0.02 1.66 -1 2 C-1.433125 2.93392578 -1.433125 2.93392578 -1.875 3.88671875 C-3.39583023 6.74355609 -5.11359917 7.42383914 -8 8.8125 C-8.886875 9.25207031 -9.77375 9.69164062 -10.6875 10.14453125 C-11.450625 10.42683594 -12.21375 10.70914063 -13 11 C-13.66 10.67 -14.32 10.34 -15 10 C-10.05 6.7 -5.1 3.4 0 0 Z " fill="#DA2418" transform="translate(506,212)"/>
<path d="M0 0 C1.65 0 3.3 0 5 0 C5.33 0.99 5.66 1.98 6 3 C10.29 3.33 14.58 3.66 19 4 C19 4.33 19 4.66 19 5 C12.2718373 5.22262303 6.46008837 4.95021536 0 3 C0 2.01 0 1.02 0 0 Z " fill="#DC2017" transform="translate(578,731)"/>
<path d="M0 0 C4.68098928 1.34745119 8.28604144 3.27223729 12.3125 6 C13.36050781 6.70125 14.40851563 7.4025 15.48828125 8.125 C18 10 18 10 19 12 C17.33333333 11.33333333 15.66666667 10.66666667 14 10 C13.113125 9.67 12.22625 9.34 11.3125 9 C9 8 9 8 7 6 C6.34 6 5.68 6 5 6 C5 5.01 5 4.02 5 3 C2.525 2.01 2.525 2.01 0 1 C0 0.67 0 0.34 0 0 Z " fill="#D0261B" transform="translate(1020,209)"/>
<path d="M0 0 C0.66 0 1.32 0 2 0 C0.51194289 5.80342274 -2.59097555 10.17590879 -6 15 C-6.66 14.67 -7.32 14.34 -8 14 C-9.67654729 14.27942455 -11.34608154 14.60828247 -13 15 C-12.46375 14.608125 -11.9275 14.21625 -11.375 13.8125 C-10.199375 12.9153125 -10.199375 12.9153125 -9 12 C-7.4840625 10.88625 -7.4840625 10.88625 -5.9375 9.75 C-2.58020383 6.97066874 -1.43523717 4.06650532 0 0 Z " fill="#D0281B" transform="translate(828,638)"/>
<path d="M0 0 C0.66 0.33 1.32 0.66 2 1 C1.1875 2.9375 1.1875 2.9375 0 5 C-0.99 5.33 -1.98 5.66 -3 6 C-3 6.99 -3 7.98 -3 9 C-3.66 9 -4.32 9 -5 9 C-5 9.66 -5 10.32 -5 11 C-5.99 11.33 -6.98 11.66 -8 12 C-6.49087042 7.01987239 -3.44338151 3.75740058 0 0 Z " fill="#DF281A" transform="translate(453,257)"/>
<path d="M0 0 C0.66 0.33 1.32 0.66 2 1 C0.87851562 1.59748047 0.87851562 1.59748047 -0.265625 2.20703125 C-1.25046875 2.73683594 -2.2353125 3.26664062 -3.25 3.8125 C-4.22453125 4.33457031 -5.1990625 4.85664063 -6.203125 5.39453125 C-8.63355412 6.78965188 -10.80787699 8.26195961 -13 10 C-12.71125 9.443125 -12.4225 8.88625 -12.125 8.3125 C-10.9586747 5.91505355 -9.9660119 3.48403061 -9 1 C-8.443125 1.20625 -7.88625 1.4125 -7.3125 1.625 C-4.34503413 2.10621068 -2.72662502 1.14805264 0 0 Z " fill="#D5261A" transform="translate(594,407)"/>
<path d="M0 0 C-1.07218201 1.01194706 -2.15826378 2.00918057 -3.25 3 C-4.15492188 3.8353125 -4.15492188 3.8353125 -5.078125 4.6875 C-7 6 -7 6 -11 6 C-11.33 5.01 -11.66 4.02 -12 3 C-11.34 3 -10.68 3 -10 3 C-9.67 2.34 -9.34 1.68 -9 1 C-2.49462366 -1.24731183 -2.49462366 -1.24731183 0 0 Z " fill="#E0291B" transform="translate(873,831)"/>
<path d="M0 0 C2.58322859 1.0039859 3.79362004 1.66431407 5.265625 4.05859375 C5.59046875 4.84363281 5.9153125 5.62867188 6.25 6.4375 C6.58515625 7.21996094 6.9203125 8.00242187 7.265625 8.80859375 C8 11 8 11 8 14 C6.84299806 12.61341021 5.69982377 11.21527559 4.5625 9.8125 C3.92441406 9.03519531 3.28632813 8.25789062 2.62890625 7.45703125 C0.92823443 4.89174929 0.38169969 3.02671729 0 0 Z " fill="#DC2A1D" transform="translate(439,640)"/>
<path d="M0 0 C0.33 0 0.66 0 1 0 C1.33 4.29 1.66 8.58 2 13 C1.67 13 1.34 13 1 13 C1 11.02 1 9.04 1 7 C0.34 7 -0.32 7 -1 7 C-1 8.65 -1 10.3 -1 12 C-1.99 12.495 -1.99 12.495 -3 13 C-2.52060632 8.28596212 -2.03165952 4.33420699 0 0 Z " fill="#F1301F" transform="translate(414,329)"/>
<path d="M0 0 C5.4185766 -0.22577402 9.77487721 0.53329887 15 2 C15 2.33 15 2.66 15 3 C9.3067505 4.18609365 5.57432514 3.66251802 0 2 C0 1.34 0 0.68 0 0 Z " fill="#DC2417" transform="translate(949,184)"/>
<path d="M0 0 C1.58294782 -0.05437607 3.16644256 -0.09296271 4.75 -0.125 C5.63171875 -0.14820313 6.5134375 -0.17140625 7.421875 -0.1953125 C10.1135858 0.00860498 11.69904974 0.63448279 14 2 C12.576875 2.2165625 12.576875 2.2165625 11.125 2.4375 C8.1065506 2.82935399 8.1065506 2.82935399 6 4 C3.98072489 3.39421747 1.97746603 2.73080266 0 2 C0 1.34 0 0.68 0 0 Z " fill="#F8ECEA" transform="translate(557,731)"/>
<path d="M0 0 C0.33 0 0.66 0 1 0 C1.02705729 1.77074917 1.04642195 3.54161711 1.0625 5.3125 C1.07410156 6.29863281 1.08570313 7.28476562 1.09765625 8.30078125 C1 11 1 11 0 14 C-0.66 14 -1.32 14 -2 14 C-2.05437607 12.41705218 -2.09296271 10.83355744 -2.125 9.25 C-2.14820313 8.36828125 -2.17140625 7.4865625 -2.1953125 6.578125 C-1.99139502 3.8864142 -1.36551721 2.30095026 0 0 Z " fill="#E42517" transform="translate(1129,370)"/>
<path d="M0 0 C1.53445094 3.06890187 0.54984289 5.70094266 0 9 C-1.32 9.33 -2.64 9.66 -4 10 C-4.8125 8.375 -4.8125 8.375 -5 6 C-3.53181864 3.75390165 -1.84147142 1.97621323 0 0 Z " fill="#E0291D" transform="translate(443,270)"/>
<path d="M0 0 C0.33 0.99 0.66 1.98 1 3 C1.99 3 2.98 3 4 3 C3.67 3.99 3.34 4.98 3 6 C-0.37462715 5.45276317 -2.08235 4.9451 -5 3 C-4.67 2.34 -4.34 1.68 -4 1 C-1.9375 0.375 -1.9375 0.375 0 0 Z " fill="#F7F3EF" transform="translate(998,192)"/>
<path d="M0 0 C1.98 0.495 1.98 0.495 4 1 C3.01 1 2.02 1 1 1 C1 1.66 1 2.32 1 3 C3.64 3.33 6.28 3.66 9 4 C9 4.66 9 5.32 9 6 C6.69 6 4.38 6 2 6 C2 5.34 2 4.68 2 4 C1.01 4 0.02 4 -1 4 C-0.67 2.68 -0.34 1.36 0 0 Z " fill="#E4392B" transform="translate(948,183)"/>
<path d="M0 0 C-2 3 -2 3 -4.1640625 3.51171875 C-4.97617187 3.56972656 -5.78828125 3.62773437 -6.625 3.6875 C-7.85089844 3.78611328 -7.85089844 3.78611328 -9.1015625 3.88671875 C-9.72804688 3.92410156 -10.35453125 3.96148437 -11 4 C-7.66477677 0.47086844 -4.87838929 -1.62612976 0 0 Z " fill="#DD281B" transform="translate(543,196)"/>
<path d="M0 0 C1.65 0.33 3.3 0.66 5 1 C5.33 1.99 5.66 2.98 6 4 C2.04 5.98 2.04 5.98 -2 8 C0 4 0 4 2 1 C1.34 0.67 0.68 0.34 0 0 Z " fill="#F8EFEC" transform="translate(502,208)"/>
<path d="M0 0 C0.33 0.66 0.66 1.32 1 2 C1.99 2 2.98 2 4 2 C4.33 4.31 4.66 6.62 5 9 C3.0625 8.4375 3.0625 8.4375 1 7 C0.25 3.375 0.25 3.375 0 0 Z " fill="#DD281C" transform="translate(819,833)"/>
<path d="M0 0 C0 0.99 0 1.98 0 3 C-0.66 2.67 -1.32 2.34 -2 2 C-1.34 1.34 -0.68 0.68 0 0 Z M-4 3 C-3.34 3.33 -2.68 3.66 -2 4 C-3 7 -3 7 -5.4375 8.25 C-8 9 -8 9 -10 8 C-8.02 6.35 -6.04 4.7 -4 3 Z " fill="#F8ECE9" transform="translate(967,756)"/>
<path d="M0 0 C-0.66 1.32 -1.32 2.64 -2 4 C-2.66 4 -3.32 4 -4 4 C-4.66 5.32 -5.32 6.64 -6 8 C-6.75 6.25 -6.75 6.25 -7 4 C-4.66754091 1.00112403 -3.88153854 0 0 0 Z " fill="#F7F3F1" transform="translate(589,412)"/>
<path d="M0 0 C2.75 -0.25 2.75 -0.25 6 0 C8.375 2 8.375 2 10 4 C9.34 4.66 8.68 5.32 8 6 C6.66402348 5.19185349 5.331275 4.37836819 4 3.5625 C3.2575 3.11003906 2.515 2.65757812 1.75 2.19140625 C1.1725 1.79824219 0.595 1.40507812 0 1 C0 0.67 0 0.34 0 0 Z " fill="#F8EEEB" transform="translate(1022,209)"/>
<path d="M0 0 C1.32 0.66 2.64 1.32 4 2 C3.01 2.33 2.02 2.66 1 3 C0.67 3.99 0.34 4.98 0 6 C-0.99 6 -1.98 6 -3 6 C-3 6.99 -3 7.98 -3 9 C-3.66 9 -4.32 9 -5 9 C-4.1875 6.0625 -4.1875 6.0625 -3 3 C-2.01 2.67 -1.02 2.34 0 2 C0 1.34 0 0.68 0 0 Z " fill="#E12517" transform="translate(431,290)"/>
<path d="M0 0 C2 1 2 1 3.1875 3.8125 C3.96421451 6.85961076 4.10096399 8.13749363 3 11 C0.39665076 8.28817788 0.00543309 7.10866187 -0.1875 3.25 C-0.125625 2.1775 -0.06375 1.105 0 0 Z " fill="#DE2317" transform="translate(1118,324)"/>
<path d="M0 0 C0.66 0 1.32 0 2 0 C1.49701212 4.40114397 -0.08772731 6.71195019 -3 10 C-3.33 9.34 -3.66 8.68 -4 8 C-3.22265625 6.0546875 -3.22265625 6.0546875 -2.0625 3.875 C-1.49208984 2.78832031 -1.49208984 2.78832031 -0.91015625 1.6796875 C-0.60980469 1.12539063 -0.30945313 0.57109375 0 0 Z " fill="#F9F2F1" transform="translate(443,264)"/>
<path d="M0 0 C0 0.66 0 1.32 0 2 C-2.31 2.66 -4.62 3.32 -7 4 C-6.625 2.0625 -6.625 2.0625 -6 0 C-3.50907189 -1.24546405 -2.58919267 -0.7767578 0 0 Z " fill="#E42A1B" transform="translate(532,201)"/>
<path d="M0 0 C-5.75 5 -5.75 5 -8 5 C-8.33 3.68 -8.66 2.36 -9 1 C-2.25 -1.125 -2.25 -1.125 0 0 Z " fill="#D62519" transform="translate(989,740)"/>
<path d="M0 0 C0.66 0.33 1.32 0.66 2 1 C0.75453595 4.73639216 -0.63404953 5.18756513 -4 7 C-4.66 6.34 -5.32 5.68 -6 5 C-4.02 3.35 -2.04 1.7 0 0 Z " fill="#FBEFEC" transform="translate(1004,727)"/>
<path d="M0 0 C1.48484412 0.39595843 2.9628831 0.81750706 4.4375 1.25 C5.26121094 1.48203125 6.08492188 1.7140625 6.93359375 1.953125 C9 3 9 3 9.78515625 5.109375 C9.85605469 5.73328125 9.92695313 6.3571875 10 7 C5.56541027 5.6062718 3.12621626 3.39417765 0 0 Z " fill="#D42418" transform="translate(489,694)"/>
<path d="M0 0 C-0.1875 1.875 -0.1875 1.875 -1 4 C-3.5625 5.25 -3.5625 5.25 -6 6 C-5.6875 4.125 -5.6875 4.125 -5 2 C-2 0 -2 0 0 0 Z " fill="#F7F2EF" transform="translate(476,232)"/>
<path d="M0 0 C0.66 0 1.32 0 2 0 C1.38461538 5.53846154 1.38461538 5.53846154 -0.5625 7.875 C-1.036875 8.24625 -1.51125 8.6175 -2 9 C-2.33 7.68 -2.66 6.36 -3 5 C-2.01 4.67 -1.02 4.34 0 4 C0 2.68 0 1.36 0 0 Z " fill="#DA291D" transform="translate(1110,610)"/>
<path d="M0 0 C0.66 0.33 1.32 0.66 2 1 C2 3.97 2 6.94 2 10 C-0.77867692 7.22132308 -0.65193902 4.8286708 -1 1 C-0.67 0.67 -0.34 0.34 0 0 Z " fill="#DB2419" transform="translate(413,584)"/>
<path d="M0 0 C0.99 0.99 1.98 1.98 3 3 C2.34 4.32 1.68 5.64 1 7 C0.01 6.67 -0.98 6.34 -2 6 C-1.34 4.02 -0.68 2.04 0 0 Z " fill="#ED382A" transform="translate(874,823)"/>
<path d="M0 0 C0 0.99 0 1.98 0 3 C-1.98 3 -3.96 3 -6 3 C-6 2.01 -6 1.02 -6 0 C-3.50907189 -1.24546405 -2.58919267 -0.7767578 0 0 Z " fill="#F9F2EE" transform="translate(525,716)"/>
<path d="M0 0 C0.66 0.33 1.32 0.66 2 1 C-1.465 3.97 -1.465 3.97 -5 7 C-5.66 6.67 -6.32 6.34 -7 6 C-5.01180815 3.01771223 -3.42353587 1.21480305 0 0 Z " fill="#D52214" transform="translate(1051,689)"/>
<path d="M0 0 C1.485 0.99 1.485 0.99 3 2 C2.67 4.97 2.34 7.94 2 11 C-0.10814567 6.78370866 -0.17700355 4.60209225 0 0 Z " fill="#CE1E13" transform="translate(405,553)"/>
<path d="M0 0 C1.65 1.65 3.3 3.3 5 5 C3.35 5.33 1.7 5.66 0 6 C-1.24546405 3.50907189 -0.7767578 2.58919267 0 0 Z " fill="#F5E5E1" transform="translate(465,674)"/>
<path d="M0 0 C0.99 0 1.98 0 3 0 C3 2.64 3 5.28 3 8 C2.34 7.67 1.68 7.34 1 7 C0.59270772 4.67843403 0.25561323 2.3431213 0 0 Z " fill="#D02E22" transform="translate(1128,535)"/>
<path d="M0 0 C1 2 1 2 0.75 3.9375 C-0.09806644 6.26968272 -1.1450996 7.38704313 -3 9 C-3.66 8.67 -4.32 8.34 -5 8 C-3.35 5.36 -1.7 2.72 0 0 Z " fill="#D42318" transform="translate(436,280)"/>
<path d="M0 0 C2.375 0.25 2.375 0.25 5 1 C6.3125 3.0625 6.3125 3.0625 7 5 C4.69 4.01 2.38 3.02 0 2 C0 1.34 0 0.68 0 0 Z " fill="#DE2D20" transform="translate(1077,258)"/>
<path d="M0 0 C5.53846154 -0.36923077 5.53846154 -0.36923077 7.875 1.5 C8.24625 1.995 8.6175 2.49 9 3 C2.25 2.25 2.25 2.25 0 0 Z " fill="#F5FEFC" transform="translate(960,183)"/>
</svg>
